<mxfile host="app.diagrams.net" modified="2021-04-27T21:21:13.748Z" agent="5.0 (Windows NT 10.0; Win64; x64) AppleWebKit/537.36 (KHTML, like Gecko) Chrome/90.0.4430.93 Safari/537.36" etag="PdqlNY8I__QliwavQ-cl" version="14.6.6" type="github">
  <diagram name="Page-1" id="f1b7ffb7-ca1e-a977-7cf5-a751b3c06c05">
    <mxGraphModel dx="868" dy="450" grid="1" gridSize="10" guides="1" tooltips="1" connect="1" arrows="1" fold="1" page="1" pageScale="1" pageWidth="826" pageHeight="1169" background="#ffffff" math="0" shadow="0">
      <root>
        <mxCell id="0" />
        <mxCell id="1" parent="0" />
        <mxCell id="svUIg3xIy0RcgDxhaTP4-62" value="" style="ellipse;whiteSpace=wrap;html=1;aspect=fixed;" vertex="1" parent="1">
          <mxGeometry x="470" y="30" width="60" height="60" as="geometry" />
        </mxCell>
        <mxCell id="svUIg3xIy0RcgDxhaTP4-64" value="" style="ellipse;whiteSpace=wrap;html=1;aspect=fixed;" vertex="1" parent="1">
          <mxGeometry x="560" y="30" width="60" height="60" as="geometry" />
        </mxCell>
        <mxCell id="svUIg3xIy0RcgDxhaTP4-65" value="" style="ellipse;whiteSpace=wrap;html=1;aspect=fixed;" vertex="1" parent="1">
          <mxGeometry x="650" y="30" width="60" height="60" as="geometry" />
        </mxCell>
        <mxCell id="svUIg3xIy0RcgDxhaTP4-66" value="" style="ellipse;whiteSpace=wrap;html=1;aspect=fixed;" vertex="1" parent="1">
          <mxGeometry x="740" y="30" width="60" height="60" as="geometry" />
        </mxCell>
        <mxCell id="svUIg3xIy0RcgDxhaTP4-68" value="" style="rounded=0;whiteSpace=wrap;html=1;" vertex="1" parent="1">
          <mxGeometry x="108" y="140" width="610" height="250" as="geometry" />
        </mxCell>
      </root>
    </mxGraphModel>
  </diagram>
</mxfile>
